<?xml version="1.0" encoding="UTF-8" standalone="no"?><!DOCTYPE svg PUBLIC "-//W3C//DTD SVG 1.1//EN" "http://www.w3.org/Graphics/SVG/1.1/DTD/svg11.dtd"><svg width="100%" height="100%" viewBox="0 0 96 96" version="1.1" xmlns="http://www.w3.org/2000/svg" xmlns:xlink="http://www.w3.org/1999/xlink" xml:space="preserve" xmlns:serif="http://www.serif.com/" style="fill-rule:evenodd;clip-rule:evenodd;stroke-linejoin:round;stroke-miterlimit:2;"><path d="M96,24c0,-13.246 -10.754,-24 -24,-24l-48,0c-13.246,0 -24,10.754 -24,24l0,48c0,13.246 10.754,24 24,24l48,0c13.246,0 24,-10.754 24,-24l0,-48Zm-8,0l0,48c0,8.831 -7.169,16 -16,16l-48,0c-8.831,0 -16,-7.169 -16,-16l0,-48c0,-8.831 7.169,-16 16,-16l48,0c8.831,0 16,7.169 16,16Z" style="fill:#04966e;"/></svg>